<svg width="1400" height="900" viewBox="0 0 1400 900" fill="none" xmlns="http://www.w3.org/2000/svg">
  <defs>
    <linearGradient id="bg" x1="0" y1="0" x2="1" y2="1">
      <stop offset="0" stop-color="#F4F7FF"/>
      <stop offset="0.5" stop-color="#EEF4FF"/>
      <stop offset="1" stop-color="#E6F5FF"/>
    </linearGradient>
    <linearGradient id="panel" x1="0" y1="0" x2="1" y2="1">
      <stop offset="0" stop-color="#FFFFFF" stop-opacity="0.95"/>
      <stop offset="1" stop-color="#F5F7FF" stop-opacity="0.9"/>
    </linearGradient>
    <linearGradient id="cta" x1="0" y1="0" x2="1" y2="0">
      <stop offset="0" stop-color="#4B6BFF"/>
      <stop offset="0.5" stop-color="#7050FF"/>
      <stop offset="1" stop-color="#8EE3FF"/>
    </linearGradient>
    <filter id="soft" x="-20%" y="-20%" width="140%" height="140%">
      <feGaussianBlur stdDeviation="40" result="blur"/>
      <feMerge>
        <feMergeNode in="blur"/>
        <feMergeNode in="SourceGraphic"/>
      </feMerge>
    </filter>
  </defs>
  <rect width="1400" height="900" rx="32" fill="url(#bg)"/>
  <circle cx="220" cy="140" r="190" fill="#AEC6FF" opacity="0.18" filter="url(#soft)"/>
  <circle cx="1160" cy="200" r="190" fill="#B8A6FF" opacity="0.16" filter="url(#soft)"/>
  <circle cx="420" cy="720" r="220" fill="#9BE1FF" opacity="0.12" filter="url(#soft)"/>

  <rect x="130" y="180" width="1140" height="620" rx="34" fill="url(#panel)" stroke="rgba(255,255,255,0.7)"/>
  <rect x="170" y="240" width="1060" height="520" rx="28" fill="#FFFFFF" stroke="#E7ECF8"/>
  <rect x="170" y="240" width="1060" height="70" rx="28" fill="#F5F7FF" stroke="#E7ECF8"/>

  <circle cx="210" cy="275" r="7" fill="#8FD9FF"/>
  <circle cx="235" cy="275" r="7" fill="#FFD166"/>
  <circle cx="260" cy="275" r="7" fill="#FF9BB7"/>
  <rect x="290" y="260" width="180" height="30" rx="12" fill="#E6ECFF"/>
  <rect x="500" y="260" width="120" height="30" rx="12" fill="#E6ECFF"/>
  <rect x="650" y="260" width="90" height="30" rx="12" fill="#E6ECFF"/>
  <rect x="770" y="260" width="140" height="30" rx="12" fill="#E6ECFF"/>
  <rect x="930" y="260" width="150" height="30" rx="12" fill="#E6ECFF"/>

  <rect x="220" y="340" width="980" height="360" rx="28" fill="url(#bg)" stroke="#E3EBFF"/>
  <rect x="240" y="360" width="520" height="320" rx="22" fill="#FFFFFF" stroke="#E5EBFF" opacity="0.9"/>
  <rect x="780" y="360" width="380" height="320" rx="22" fill="#FFFFFF" stroke="#E5EBFF" opacity="0.9"/>

  <rect x="300" y="420" width="400" height="190" rx="18" fill="#F2F5FF" stroke="#E6EBFF"/>
  <path d="M340 515C400 440 540 430 640 500" stroke="#7B8CFF" stroke-width="4" stroke-linecap="round" stroke-linejoin="round" fill="none"/>
  <path d="M360 550C420 470 560 460 640 530" stroke="#70E0FF" stroke-width="4" stroke-linecap="round" stroke-linejoin="round" fill="none"/>
  <rect x="340" y="470" width="12" height="80" rx="6" fill="#6ED1FF"/>
  <rect x="370" y="455" width="12" height="95" rx="6" fill="#7C8BFF"/>
  <rect x="400" y="445" width="12" height="105" rx="6" fill="#9FA9FF"/>
  <rect x="430" y="460" width="12" height="90" rx="6" fill="#7CE7B7"/>

  <rect x="820" y="400" width="300" height="60" rx="16" fill="#F3F7FF" stroke="#E3EBFF"/>
  <rect x="840" y="420" width="260" height="20" rx="10" fill="#E2E9FF"/>
  <rect x="840" y="450" width="180" height="12" rx="6" fill="#D8E3FF"/>

  <rect x="820" y="480" width="300" height="60" rx="16" fill="#F3F7FF" stroke="#E3EBFF"/>
  <rect x="840" y="500" width="260" height="20" rx="10" fill="#E2E9FF"/>
  <rect x="840" y="530" width="120" height="12" rx="6" fill="#D8E3FF"/>

  <rect x="820" y="560" width="300" height="60" rx="16" fill="#F3F7FF" stroke="#E3EBFF"/>
  <rect x="840" y="580" width="240" height="20" rx="10" fill="#E2E9FF"/>
  <rect x="840" y="610" width="160" height="12" rx="6" fill="#D8E3FF"/>

  <rect x="260" y="380" width="480" height="60" rx="18" fill="#FFFFFF" stroke="#E6ECFF"/>
  <rect x="280" y="400" width="190" height="20" rx="10" fill="#E3E9FF"/>
  <rect x="490" y="400" width="120" height="20" rx="10" fill="#DBE4FF"/>
  <rect x="630" y="400" width="80" height="20" rx="10" fill="#CFE3FF"/>

  <rect x="320" y="640" width="310" height="40" rx="12" fill="#FFFFFF" stroke="#E6ECFF"/>
  <text x="335" y="666" fill="#6070A0" font-family="Inter, Arial" font-size="16" font-weight="600">Drag &amp; drop your file or browse</text>
  <rect x="610" y="648" width="12" height="24" rx="6" fill="#8EE3FF"/>
  <rect x="630" y="648" width="12" height="24" rx="6" fill="#8BC2FF"/>
  <rect x="650" y="648" width="12" height="24" rx="6" fill="#8FA7FF"/>

  <rect x="240" y="700" width="120" height="100" rx="16" fill="#FFFFFF" stroke="#E6ECFF"/>
  <rect x="260" y="720" width="80" height="12" rx="6" fill="#D8E3FF"/>
  <rect x="260" y="740" width="70" height="10" rx="5" fill="#E6ECFF"/>

  <rect x="380" y="700" width="120" height="100" rx="16" fill="#FFFFFF" stroke="#E6ECFF"/>
  <rect x="400" y="720" width="80" height="12" rx="6" fill="#D8E3FF"/>
  <rect x="400" y="740" width="70" height="10" rx="5" fill="#E6ECFF"/>

  <rect x="520" y="700" width="120" height="100" rx="16" fill="#FFFFFF" stroke="#E6ECFF"/>
  <rect x="540" y="720" width="80" height="12" rx="6" fill="#D8E3FF"/>
  <rect x="540" y="740" width="70" height="10" rx="5" fill="#E6ECFF"/>

  <rect x="660" y="700" width="120" height="100" rx="16" fill="#FFFFFF" stroke="#E6ECFF"/>
  <rect x="680" y="720" width="80" height="12" rx="6" fill="#D8E3FF"/>
  <rect x="680" y="740" width="70" height="10" rx="5" fill="#E6ECFF"/>

  <rect x="1000" y="320" width="180" height="46" rx="14" fill="url(#cta)"/>
  <text x="1040" y="350" fill="#FFFFFF" font-family="Inter, Arial" font-size="16" font-weight="700">Upload Dataset</text>
</svg>
